<svg version="1" xmlns="http://www.w3.org/2000/svg" width="1333.333" height="1333.333" viewBox="0 0 1000.000000 1000.000000"><path d="M460 1.1c-73.1 6.3-145.1 28.4-206.5 63.4-35.1 19.9-80 53.6-101 75.7l-6 6.3 104.4 104c57.4 57.2 103.5 102.6 102.5 101-1-1.7-4-5.9-6.5-9.5-16.1-22.5-29-52.5-33.4-77.9-2-11.1-1.9-32.4.1-44.2 6.8-39.8 35.3-80.9 74.3-107 18.4-12.4 35.4-19.8 55.4-24.1 13.4-2.8 38.6-3.1 52.2-.5 30.9 6 62.9 21.7 92.5 45.5 5.2 4.2 24.3 22.3 42.3 40.1l32.8 32.5 59.4-59.4c32.7-32.7 59.5-59.7 59.5-60 0-.3-5.3-3.9-11.8-8.1C702.2 34.8 622.7 8.1 538.5 1c-13.9-1.1-64.6-1.1-78.5.1z"/><path d="M462.2 111.2c-17 2.1-36.6 8.7-50.3 16.9-41.4 24.8-70 65.1-75.1 105.6-3.2 24.9 8.8 61.3 30.7 92.8 9.7 14 10.5 16 10.5 26 0 11.8-3.6 18.3-12.7 22.9-4.8 2.4-19.2 2.2-24.2-.4-2.3-1.1-42.5-40.4-99.5-97.1l-95.7-95.3-14.4 14.5-14.4 14.4 53.9 54.1c33.6 33.8 54.6 55.7 55.9 58.2 2.7 5.3 3 19.6.5 24.5-.9 1.8-15.5 17.1-32.3 34.2-16.9 17-34.8 36.1-39.9 42.3-24.8 30.5-38.5 58.2-43.8 88.5-2.8 16.4-1.5 30 4.8 49.7 13.1 41.1 52.4 80.8 92.8 94 19.1 6.2 32.1 7.3 48.9 4.1 25.8-5 49.9-16.2 74.5-34.6 13.1-9.7 15-10.5 25.1-10.5 11.7 0 18.1 3.5 22.6 12.2 2.8 5.4 2.7 19.3-.2 25.1-1.4 2.9-33.1 35.2-99.7 101.9L182.5 853l14.8 14.7 14.7 14.8 54.8-54.7c30.1-30 56.1-55.3 57.9-56.2 4.4-2.2 19.2-2.2 23.6 0 1.8.9 17.4 15.7 34.7 32.8 49 48.5 72.1 65.3 105.9 77 33.9 11.8 61.4 10 92.4-5.8 14.8-7.5 26.6-16.3 40.3-30 33-33.1 47.3-71.7 39.4-107.1-6.1-27.5-15.8-47.5-36.4-75-13.2-17.7-13.6-18.3-13.6-28.8 0-12 3.5-18.5 12.7-23.1 4.4-2.2 19.2-2.2 23.6 0 1.8.9 49.1 47.5 105.2 103.5l102 101.9 14.8-14.8 14.7-14.7-54.1-54c-29.7-29.7-54.9-55.7-56-57.7-2.5-4.9-2.7-20.3-.3-25.1.9-1.8 15.7-17.4 32.8-34.7 32.9-33.3 43.5-45.3 56.1-64 20.2-30.1 31.6-67.7 28-92.5-2.1-14.3-5.9-26.7-12.4-40-18.8-38.3-56.6-70.3-94.9-80.1-19.8-5.1-35.5-4.1-59.4 3.7-19.7 6.4-32.6 13.1-51.5 26.5-14.9 10.7-16.9 11.5-26.9 11.5-6.6 0-9.3-.5-12.6-2.2-2.4-1.2-4.5-2.2-4.8-2.3-.3-.1-.4-.8-.4-1.8.1-1.1-.5-1.5-1.7-1.3-1.3.3-2.1-.4-2.5-2.1-.3-1.3-1-2.4-1.6-2.4-.5 0-.7-.4-.3-.9.3-.5.1-1.2-.5-1.6-1.6-1-.4-18.2 1.7-22 1-1.9 45.1-47 98-100.3l96.2-96.9-14.7-14.6-14.7-14.7-54 54.1c-29.7 29.7-55.7 54.9-57.7 56-5.3 2.7-19.3 2.7-24.8-.1-2.1-1.1-9.2-7.3-15.7-13.7-34.5-34.2-54.8-53.6-63.3-60.5-27.5-22.1-55.1-35.7-82.9-40.7-14.4-2.7-18.4-2.9-26.9-1.9zm50.8 38.3c14.3 3 32.7 11.9 47.3 22.8 10.3 7.7 70.2 66.9 72.8 71.9 2.7 5.3 2.7 21.3 0 26.6-2.4 4.6-131.4 133.4-135.8 135.6-4.8 2.4-21.2 2.2-26.1-.3-2-1.1-18.4-16.7-36.3-34.8-35.9-36.2-41.7-43.4-51.4-63.5-7.9-16.4-9.5-24.2-9.5-46.4 0-20.9 1.3-27.9 8-42.1 6.6-14.1 13.7-23.8 27.2-36.8 18.6-18.2 36.6-28.9 55.3-33 8.7-1.9 39.4-1.9 48.5 0zM268.8 365.9c4.6 2.4 134.4 132.4 136.6 136.8 2.4 4.8 2.2 20.2-.3 25.1-2.8 5.4-65.8 67.7-76.1 75.2-10 7.3-31.6 18.1-41.5 20.7-5.8 1.5-10.8 1.8-28.5 1.8-20.8-.1-21.8-.2-29.3-2.8-18.7-6.5-32.9-15.8-48.9-31.9-18.8-19.1-30.7-40.4-33.9-61-1.8-11.5-.6-39.5 2-48.6 4.4-15.2 14.5-33.6 26.2-47.7 7.9-9.6 64.7-65.9 68.4-67.9 4.6-2.4 20.5-2.2 25.3.3zm498.7 9.6c7.8 2.1 22.4 9.1 31.7 15 9.1 5.9 30.6 27.4 36.9 37 6.7 10.1 12.5 22.1 15.6 32.2 2.5 8.3 2.6 10 2.6 28.8 0 17.3-.3 21.1-2.2 28-2.9 10.8-13.5 32.1-21.2 42.5-7.6 10.4-67.9 71.4-73.1 74.1-4.9 2.5-21.3 2.7-26.1.3-4.4-2.2-133.4-131-135.8-135.6-2.7-5.3-2.7-21.3 0-26.6 2.9-5.6 65.9-67.6 76.1-74.9 4.7-3.3 13.9-8.8 20.6-12.1 19.5-9.8 26.8-11.3 51.9-10.7 11.5.3 19 .9 23 2zM528.8 593.9c4.6 2.3 61.3 59.5 70.2 70.7 11.1 14 20.5 31.6 24.6 46 2.5 8.6 3.1 41.2 1 51.2-1.8 8.8-6.8 20.6-13.3 31.6-5.6 9.5-28.9 33.7-38.8 40.3-11.8 7.9-26.7 14.7-38 17.2-8 1.8-40.7 1.7-48.6-.2-13.9-3.4-29.3-10.5-43.5-20.3-8.5-5.9-73.8-70.4-76.5-75.6-2.7-5.3-2.7-19.4 0-24.6 2.3-4.4 132.2-134.3 136.6-136.6 4.6-2.4 21.4-2.2 26.3.3z"/><path d="M471 174.1c-15.3 4-29 12.1-42.9 25.3-10.9 10.5-17.2 19-22.6 30.1-5.6 11.7-7.5 19.7-7.5 32.2 0 12.4 2.4 22.5 8.4 34.8 7.8 16.2 15 24.9 47 57.2 16.5 16.7 30.5 30.3 31 30.3 1.4 0 126.6-125.2 126.6-126.5 0-2-58.5-59.1-66.9-65.4-10.6-7.9-26.2-15.5-37.1-18.1-11.2-2.6-25.7-2.6-36 .1zM234.4 409c-37.8 37.5-48.7 50.8-56.4 68.8-5 11.6-7 21-7 33 0 21.5 8.6 40.8 26.9 60.4 12.9 13.8 28.2 23.6 43.7 27.9 10.6 3 26.5 3 37.8 0 9.7-2.6 23.5-9.4 34.1-16.9 5-3.5 19.8-17.4 39-36.4l31-30.7-63.7-63.8-63.7-63.7-21.7 21.4zM730.5 398.1c-13.5 2.1-28.8 8.7-43 18.7-8 5.7-69.5 65.5-69.5 67.6 0 1.4 125.2 126.6 126.6 126.6 1.8 0 57.5-56.9 63.6-65 8.2-10.8 14.1-21.6 17.8-32.8 2.8-8.3 3.4-11.5 3.8-21.7.5-13.6-.9-21.1-5.8-32.7-9.4-22.1-33-46.1-53.9-54.9-13.3-5.6-27.6-7.7-39.6-5.8zM451.2 679.3L388 742.6l31.2 31c30.9 30.7 36.6 35.6 51.8 44.2 17.7 10 42.7 13.1 60.8 7.6 8-2.4 21.5-9.5 29.2-15.3 9.2-6.9 22.2-20.8 28.1-29.9 20-31.2 16.4-66.1-10.4-99.7-4.1-5-62.7-64.5-63.7-64.5-.3 0-29 28.5-63.8 63.3z"/><path d="M845.4 138.8l7.8 8.2-4.4 4.8c-2.5 2.6-48.5 48.6-102.2 102.2-53.8 53.6-99.2 99.3-100.9 101.5l-3.2 4 5-3.8c43.8-32.9 87.1-48 125.4-43.7 34.7 3.8 64.1 19 93.1 48 28.5 28.5 43.5 56.7 48.6 91.2 1.9 13.3 1.5 32.3-1.1 45.8-5.6 29.1-21.6 61.3-44.5 90-4.7 5.8-22.7 24.9-40.2 42.6-17.5 17.6-31.8 32.7-31.8 33.5 0 .8 26.3 27.7 58.4 59.8l58.4 58.4 7.5-11.4c34.1-52.4 59.8-117.6 71.1-180.9 5.7-31.8 7.6-54.2 7.6-89s-1.9-57.2-7.6-89c-18-100.6-68-195.3-140.6-266.5-7.8-7.7-10.7-10.3-6.4-5.7zM79.7 228.6C35 297.4 8.2 376.8 1 461.5-.3 477-.3 523 1 538.5c5.4 63.9 21.4 123 48.4 179 24.7 51.2 58.8 98.9 98.3 137.5 7.6 7.4 10.5 10.1 6.5 6-3.9-4.2-7.2-8-7.2-8.5 0-.6 47.4-48.4 105.3-106.4 57.8-58 103.6-104.3 101.7-102.9-35 25.2-57.6 36.1-88 42.5-11.9 2.5-38.2 2.4-50 0-50.2-10.6-96.8-50.1-119.8-101.6-21-47.1-12.4-104.1 23.6-156 11.1-16.1 20.6-26.6 52.9-59.1 17.2-17.4 31.3-32 31.3-32.6 0-.5-26.4-27.3-58.7-59.6L86.5 218l-6.8 10.6zM636.5 635.9c.4.8 4.9 6.8 9.9 13.5 19.8 26.4 32.9 53.3 38.7 80 2.7 12 3.6 33.8 1.9 45.9-4.7 34.7-23.7 68-55 96.3-22.5 20.3-49.2 34.3-76.6 40.1-12.4 2.6-41.8 2.3-55-.5-30.3-6.5-60.7-22-90.2-45.9-5.9-4.8-24.7-22.6-41.8-39.5-17.1-16.9-31.5-30.8-32-30.8-1.2 0-119 117.8-118.4 118.3.3.3 5.7 3.8 12 7.9 68.1 44.1 147.2 70.7 231.5 77.8 15.5 1.3 61.5 1.3 77 0 109.8-9.3 208.6-50.9 291-122.5 6.6-5.7 14.9-13.3 18.5-17l6.5-6.5-109.4-109.3c-60.1-60-109-108.6-108.6-107.8z"/></svg>